<mxfile host="app.diagrams.net" modified="2023-07-20T06:34:23.030Z" agent="Mozilla/5.0 (Windows NT 10.0; Win64; x64) AppleWebKit/537.36 (KHTML, like Gecko) Chrome/115.0.0.0 Safari/537.36" etag="l8Anbkr_7ViO8C3fEZ9w" version="21.6.3" type="google">
  <diagram name="Page-1" id="TYET62xlc4fWZsSHMXU4">
    <mxGraphModel grid="1" page="1" gridSize="10" guides="1" tooltips="1" connect="1" arrows="1" fold="1" pageScale="1" pageWidth="850" pageHeight="1100" math="0" shadow="0">
      <root>
        <object label="" id="0">
          <mxCell />
        </object>
        <mxCell id="1" parent="0" />
        <mxCell id="ZG-481OehyHUsHjkqGz2-1" value="&lt;font style=&quot;font-size: 14px;&quot;&gt;Person&lt;/font&gt;" style="swimlane;fontStyle=1;align=center;verticalAlign=top;childLayout=stackLayout;horizontal=1;startSize=26;horizontalStack=0;resizeParent=1;resizeParentMax=0;resizeLast=0;collapsible=1;marginBottom=0;whiteSpace=wrap;html=1;hachureGap=4;fontFamily=Times New Roman;fontSize=14;swimlaneLine=1;" vertex="1" parent="1">
          <mxGeometry x="170" y="-2170" width="210" height="180" as="geometry" />
        </mxCell>
        <mxCell id="ZG-481OehyHUsHjkqGz2-2" value="- name : string&lt;br style=&quot;font-size: 14px;&quot;&gt;-age : int" style="text;strokeColor=none;fillColor=none;align=left;verticalAlign=top;spacingLeft=4;spacingRight=4;overflow=hidden;rotatable=0;points=[[0,0.5],[1,0.5]];portConstraint=eastwest;whiteSpace=wrap;html=1;fontSize=14;fontFamily=Times New Roman;" vertex="1" parent="ZG-481OehyHUsHjkqGz2-1">
          <mxGeometry y="26" width="210" height="64" as="geometry" />
        </mxCell>
        <mxCell id="ZG-481OehyHUsHjkqGz2-3" value="" style="line;strokeWidth=1;fillColor=none;align=left;verticalAlign=middle;spacingTop=-1;spacingLeft=3;spacingRight=3;rotatable=0;labelPosition=right;points=[];portConstraint=eastwest;strokeColor=default;hachureGap=4;fontFamily=Times New Roman;fontSize=14;" vertex="1" parent="ZG-481OehyHUsHjkqGz2-1">
          <mxGeometry y="90" width="210" height="8" as="geometry" />
        </mxCell>
        <mxCell id="ZG-481OehyHUsHjkqGz2-4" value="+getName() : String&lt;br style=&quot;font-size: 14px;&quot;&gt;+setName(String) : void&lt;br style=&quot;font-size: 14px;&quot;&gt;+getAge() : int&lt;br style=&quot;font-size: 14px;&quot;&gt;+setAge(int) : void" style="text;strokeColor=none;fillColor=none;align=left;verticalAlign=top;spacingLeft=4;spacingRight=4;overflow=hidden;rotatable=0;points=[[0,0.5],[1,0.5]];portConstraint=eastwest;whiteSpace=wrap;html=1;fontSize=14;fontFamily=Times New Roman;rounded=0;glass=0;" vertex="1" parent="ZG-481OehyHUsHjkqGz2-1">
          <mxGeometry y="98" width="210" height="82" as="geometry" />
        </mxCell>
        <mxCell id="ZG-481OehyHUsHjkqGz2-8" value="Student" style="swimlane;fontStyle=1;align=center;verticalAlign=top;childLayout=stackLayout;horizontal=1;startSize=26;horizontalStack=0;resizeParent=1;resizeParentMax=0;resizeLast=0;collapsible=1;marginBottom=0;whiteSpace=wrap;html=1;hachureGap=4;fontFamily=Times New Roman;fontSize=14;" vertex="1" parent="1">
          <mxGeometry x="40" y="-1870" width="220" height="130" as="geometry" />
        </mxCell>
        <mxCell id="ZG-481OehyHUsHjkqGz2-9" value="-rollNo : int" style="text;strokeColor=none;fillColor=none;align=left;verticalAlign=top;spacingLeft=4;spacingRight=4;overflow=hidden;rotatable=0;points=[[0,0.5],[1,0.5]];portConstraint=eastwest;fontSize=14;fontFamily=Times New Roman;whiteSpace=wrap;html=1;" vertex="1" parent="ZG-481OehyHUsHjkqGz2-8">
          <mxGeometry y="26" width="220" height="26" as="geometry" />
        </mxCell>
        <mxCell id="ZG-481OehyHUsHjkqGz2-10" value="" style="line;strokeWidth=1;fillColor=none;align=left;verticalAlign=middle;spacingTop=-1;spacingLeft=3;spacingRight=3;rotatable=0;labelPosition=right;points=[];portConstraint=eastwest;strokeColor=default;hachureGap=4;fontFamily=Times New Roman;fontSize=14;" vertex="1" parent="ZG-481OehyHUsHjkqGz2-8">
          <mxGeometry y="52" width="220" height="8" as="geometry" />
        </mxCell>
        <mxCell id="ZG-481OehyHUsHjkqGz2-11" value="+getRollNo() : int&lt;br style=&quot;font-size: 14px;&quot;&gt;&lt;span style=&quot;background-color: initial; font-size: 14px;&quot;&gt;+setRollNo(int) : void&lt;/span&gt;" style="text;strokeColor=none;fillColor=none;align=left;verticalAlign=top;spacingLeft=4;spacingRight=4;overflow=hidden;rotatable=0;points=[[0,0.5],[1,0.5]];portConstraint=eastwest;fontSize=14;fontFamily=Times New Roman;whiteSpace=wrap;html=1;" vertex="1" parent="ZG-481OehyHUsHjkqGz2-8">
          <mxGeometry y="60" width="220" height="70" as="geometry" />
        </mxCell>
        <mxCell id="ZG-481OehyHUsHjkqGz2-12" value="Classname" style="swimlane;fontStyle=1;align=center;verticalAlign=top;childLayout=stackLayout;horizontal=1;startSize=26;horizontalStack=0;resizeParent=1;resizeParentMax=0;resizeLast=0;collapsible=1;marginBottom=0;whiteSpace=wrap;html=1;hachureGap=4;fontFamily=Times New Roman;fontSize=14;" vertex="1" parent="1">
          <mxGeometry x="320" y="-1870" width="200" height="130" as="geometry" />
        </mxCell>
        <mxCell id="ZG-481OehyHUsHjkqGz2-13" value="&lt;font style=&quot;font-size: 14px;&quot;&gt;-empId : int&lt;/font&gt;" style="text;strokeColor=none;fillColor=none;align=left;verticalAlign=top;spacingLeft=4;spacingRight=4;overflow=hidden;rotatable=0;points=[[0,0.5],[1,0.5]];portConstraint=eastwest;whiteSpace=wrap;html=1;fontSize=14;fontFamily=Times New Roman;" vertex="1" parent="ZG-481OehyHUsHjkqGz2-12">
          <mxGeometry y="26" width="200" height="26" as="geometry" />
        </mxCell>
        <mxCell id="ZG-481OehyHUsHjkqGz2-14" value="" style="line;strokeWidth=1;fillColor=none;align=left;verticalAlign=middle;spacingTop=-1;spacingLeft=3;spacingRight=3;rotatable=0;labelPosition=right;points=[];portConstraint=eastwest;strokeColor=default;hachureGap=4;fontFamily=Times New Roman;fontSize=14;" vertex="1" parent="ZG-481OehyHUsHjkqGz2-12">
          <mxGeometry y="52" width="200" height="8" as="geometry" />
        </mxCell>
        <mxCell id="ZG-481OehyHUsHjkqGz2-15" value="&lt;font style=&quot;font-size: 14px;&quot;&gt;+getEmpId() : int&lt;br style=&quot;font-size: 14px;&quot;&gt;+setEMpId(int) : void&lt;/font&gt;" style="text;strokeColor=none;fillColor=none;align=left;verticalAlign=top;spacingLeft=4;spacingRight=4;overflow=hidden;rotatable=0;points=[[0,0.5],[1,0.5]];portConstraint=eastwest;whiteSpace=wrap;html=1;fontSize=14;fontFamily=Times New Roman;" vertex="1" parent="ZG-481OehyHUsHjkqGz2-12">
          <mxGeometry y="60" width="200" height="70" as="geometry" />
        </mxCell>
        <mxCell id="ZG-481OehyHUsHjkqGz2-16" value="Extends" style="endArrow=block;endSize=16;endFill=0;html=1;rounded=0;hachureGap=4;fontFamily=Times New Roman;fontSize=14;entryX=0.183;entryY=1;entryDx=0;entryDy=0;entryPerimeter=0;exitX=0.5;exitY=0;exitDx=0;exitDy=0;" edge="1" parent="1" source="ZG-481OehyHUsHjkqGz2-8" target="ZG-481OehyHUsHjkqGz2-4">
          <mxGeometry width="160" relative="1" as="geometry">
            <mxPoint x="190" y="-1890" as="sourcePoint" />
            <mxPoint x="350" y="-1890" as="targetPoint" />
          </mxGeometry>
        </mxCell>
        <mxCell id="ZG-481OehyHUsHjkqGz2-17" value="Extends" style="endArrow=block;endSize=16;endFill=0;html=1;rounded=0;hachureGap=4;fontFamily=Times New Roman;fontSize=14;exitX=0.5;exitY=0;exitDx=0;exitDy=0;entryX=0.583;entryY=1;entryDx=0;entryDy=0;entryPerimeter=0;" edge="1" parent="1" source="ZG-481OehyHUsHjkqGz2-12" target="ZG-481OehyHUsHjkqGz2-4">
          <mxGeometry width="160" relative="1" as="geometry">
            <mxPoint x="330" y="-1900" as="sourcePoint" />
            <mxPoint x="490" y="-1900" as="targetPoint" />
          </mxGeometry>
        </mxCell>
        <mxCell id="ZG-481OehyHUsHjkqGz2-18" value="Address" style="swimlane;fontStyle=1;align=center;verticalAlign=top;childLayout=stackLayout;horizontal=1;startSize=26;horizontalStack=0;resizeParent=1;resizeParentMax=0;resizeLast=0;collapsible=1;marginBottom=0;whiteSpace=wrap;html=1;fontSize=14;fontFamily=Times New Roman;" vertex="1" parent="1">
          <mxGeometry x="590" y="-2160" width="160" height="140" as="geometry" />
        </mxCell>
        <mxCell id="ZG-481OehyHUsHjkqGz2-19" value="-city : String&lt;br style=&quot;font-size: 14px;&quot;&gt;-state : String" style="text;strokeColor=none;fillColor=none;align=left;verticalAlign=top;spacingLeft=4;spacingRight=4;overflow=hidden;rotatable=0;points=[[0,0.5],[1,0.5]];portConstraint=eastwest;whiteSpace=wrap;html=1;fontSize=14;fontFamily=Times New Roman;" vertex="1" parent="ZG-481OehyHUsHjkqGz2-18">
          <mxGeometry y="26" width="160" height="34" as="geometry" />
        </mxCell>
        <mxCell id="ZG-481OehyHUsHjkqGz2-20" value="" style="line;strokeWidth=1;fillColor=none;align=left;verticalAlign=middle;spacingTop=-1;spacingLeft=3;spacingRight=3;rotatable=0;labelPosition=right;points=[];portConstraint=eastwest;strokeColor=inherit;fontSize=14;fontFamily=Times New Roman;" vertex="1" parent="ZG-481OehyHUsHjkqGz2-18">
          <mxGeometry y="60" width="160" height="8" as="geometry" />
        </mxCell>
        <mxCell id="ZG-481OehyHUsHjkqGz2-21" value="+getCity() : String&lt;br style=&quot;font-size: 14px;&quot;&gt;+setCity(String) : void&lt;br style=&quot;font-size: 14px;&quot;&gt;+getState() : String&lt;br style=&quot;font-size: 14px;&quot;&gt;+setState(String) : void" style="text;strokeColor=none;fillColor=none;align=left;verticalAlign=top;spacingLeft=4;spacingRight=4;overflow=hidden;rotatable=0;points=[[0,0.5],[1,0.5]];portConstraint=eastwest;whiteSpace=wrap;html=1;fontSize=14;fontFamily=Times New Roman;" vertex="1" parent="ZG-481OehyHUsHjkqGz2-18">
          <mxGeometry y="68" width="160" height="72" as="geometry" />
        </mxCell>
        <mxCell id="ZG-481OehyHUsHjkqGz2-22" value="" style="endArrow=diamondThin;endFill=0;endSize=24;html=1;rounded=0;entryX=-0.006;entryY=0.177;entryDx=0;entryDy=0;entryPerimeter=0;exitX=-0.006;exitY=0.177;exitDx=0;exitDy=0;exitPerimeter=0;fontSize=14;fontFamily=Times New Roman;" edge="1" parent="ZG-481OehyHUsHjkqGz2-18" source="ZG-481OehyHUsHjkqGz2-21">
          <mxGeometry width="160" relative="1" as="geometry">
            <mxPoint x="-140" y="160" as="sourcePoint" />
            <mxPoint x="-211" y="82" as="targetPoint" />
          </mxGeometry>
        </mxCell>
        <mxCell id="ZG-481OehyHUsHjkqGz2-24" value="«interface»&lt;br style=&quot;font-size: 14px;&quot;&gt;&lt;b style=&quot;font-size: 14px;&quot;&gt;Salary&lt;/b&gt;" style="html=1;whiteSpace=wrap;fontSize=14;fontFamily=Times New Roman;" vertex="1" parent="1">
          <mxGeometry x="670" y="-1850" width="110" height="50" as="geometry" />
        </mxCell>
        <mxCell id="ZG-481OehyHUsHjkqGz2-25" value="" style="endArrow=block;dashed=1;endFill=0;endSize=12;html=1;rounded=0;entryX=0;entryY=0.5;entryDx=0;entryDy=0;fontSize=14;fontFamily=Times New Roman;" edge="1" parent="1" source="ZG-481OehyHUsHjkqGz2-13" target="ZG-481OehyHUsHjkqGz2-24">
          <mxGeometry width="160" relative="1" as="geometry">
            <mxPoint x="500" y="-1720" as="sourcePoint" />
            <mxPoint x="660" y="-1720" as="targetPoint" />
          </mxGeometry>
        </mxCell>
        <mxCell id="EtYRxp5Z5O9ChQH0K8HJ-1" value="1" style="text;align=center;fontStyle=1;verticalAlign=middle;spacingLeft=3;spacingRight=3;strokeColor=none;rotatable=0;points=[[0,0.5],[1,0.5]];portConstraint=eastwest;html=1;" vertex="1" parent="1">
          <mxGeometry x="382" y="-2114" width="32" height="26" as="geometry" />
        </mxCell>
        <mxCell id="EtYRxp5Z5O9ChQH0K8HJ-2" value="n" style="text;align=center;fontStyle=1;verticalAlign=middle;spacingLeft=3;spacingRight=3;strokeColor=none;rotatable=0;points=[[0,0.5],[1,0.5]];portConstraint=eastwest;html=1;" vertex="1" parent="1">
          <mxGeometry x="559" y="-2105" width="30" height="26" as="geometry" />
        </mxCell>
      </root>
    </mxGraphModel>
  </diagram>
</mxfile>
